<svg width="24" height="24" viewBox="0 0 24 24" fill="none" xmlns="http://www.w3.org/2000/svg">
<path d="M12.019 17.1C9.196 17.1 6.9094 14.8176 6.9094 12C6.9094 9.18245 9.1954 6.90005 12.019 6.90005C13.2246 6.90026 14.3912 7.32705 15.3123 8.10487C16.2335 8.88268 16.8496 9.96133 17.0518 11.1498H22.1998C21.7654 5.91425 17.3758 1.80005 12.019 1.80005C6.3772 1.80005 1.7998 6.36905 1.7998 12C1.7998 17.631 6.3772 22.2 12.019 22.2C17.3752 22.2 21.7654 18.0858 22.1998 12.8502H17.0518C16.8496 14.0388 16.2335 15.1174 15.3123 15.8952C14.3912 16.673 13.2246 17.0998 12.019 17.1Z" fill="#0052FF"/>
</svg>
